<mxfile host="app.diagrams.net" modified="2021-01-25T19:09:01.120Z" agent="5.0 (Windows NT 6.3; Win64; x64) AppleWebKit/537.36 (KHTML, like Gecko) Chrome/87.0.4280.141 Safari/537.36" etag="YVznNFeGqidsAAFrMNY5" version="14.2.7" type="github">
  <diagram name="Page-1" id="82e54ff1-d628-8f03-85c4-9753963a91cd">
    <mxGraphModel dx="981" dy="526" grid="1" gridSize="10" guides="1" tooltips="1" connect="1" arrows="1" fold="1" page="1" pageScale="1" pageWidth="1169" pageHeight="827" background="#ffffff" math="0" shadow="0">
      <root>
        <mxCell id="0" />
        <mxCell id="1" parent="0" />
        <mxCell id="4ec97bd9e5d20128-1" value="" style="line;strokeWidth=2;html=1;fillColor=none;fontSize=28;fontColor=#004D99;strokeColor=#004D99;" parent="1" vertex="1">
          <mxGeometry x="66.5" y="160" width="1000" height="10" as="geometry" />
        </mxCell>
        <mxCell id="4ec97bd9e5d20128-5" value="Алхам 1" style="shape=offPageConnector;whiteSpace=wrap;html=1;fillColor=#0075E8;fontSize=15;fontColor=#FFFFFF;size=0.5093750000000015;verticalAlign=top;strokeColor=none;" parent="1" vertex="1">
          <mxGeometry x="87.5" y="100" width="160" height="40" as="geometry" />
        </mxCell>
        <mxCell id="4ec97bd9e5d20128-6" value="&lt;span&gt;Алхам 3&lt;/span&gt;" style="shape=offPageConnector;whiteSpace=wrap;html=1;fillColor=#0075E8;fontSize=15;fontColor=#FFFFFF;size=0.5093750000000015;verticalAlign=top;strokeColor=none;" parent="1" vertex="1">
          <mxGeometry x="561" y="100" width="160" height="40" as="geometry" />
        </mxCell>
        <mxCell id="4ec97bd9e5d20128-9" value="" style="ellipse;whiteSpace=wrap;html=1;fillColor=#61BAFF;fontSize=28;fontColor=#004D99;strokeWidth=3;strokeColor=#004D99;" parent="1" vertex="1">
          <mxGeometry x="157.5" y="155" width="20" height="20" as="geometry" />
        </mxCell>
        <mxCell id="4ec97bd9e5d20128-10" value="" style="ellipse;whiteSpace=wrap;html=1;fillColor=#61BAFF;fontSize=28;fontColor=#004D99;strokeWidth=3;strokeColor=#004D99;" parent="1" vertex="1">
          <mxGeometry x="396.5" y="155" width="20" height="20" as="geometry" />
        </mxCell>
        <mxCell id="4ec97bd9e5d20128-11" value="" style="ellipse;whiteSpace=wrap;html=1;fillColor=#61BAFF;fontSize=28;fontColor=#004D99;strokeWidth=3;strokeColor=#004D99;" parent="1" vertex="1">
          <mxGeometry x="629.5" y="155" width="20" height="20" as="geometry" />
        </mxCell>
        <mxCell id="4ec97bd9e5d20128-13" value="" style="ellipse;whiteSpace=wrap;html=1;fillColor=#61BAFF;fontSize=28;fontColor=#004D99;strokeWidth=3;strokeColor=#004D99;" parent="1" vertex="1">
          <mxGeometry x="837.5" y="155" width="20" height="20" as="geometry" />
        </mxCell>
        <mxCell id="4ec97bd9e5d20128-14" value="&lt;h3&gt;&lt;font style=&quot;font-size: 16px&quot;&gt;Ерөнхий бүртгэл&lt;/font&gt;&lt;/h3&gt;" style="text;html=1;spacing=5;spacingTop=-20;whiteSpace=wrap;overflow=hidden;strokeColor=none;strokeWidth=3;fillColor=#E6E6E6;fontSize=13;fontColor=#000000;align=center;rounded=1;" parent="1" vertex="1">
          <mxGeometry x="60.5" y="190" width="215" height="30" as="geometry" />
        </mxCell>
        <mxCell id="eTi-LTEG1T1zRE0e5gj7-2" value="&lt;p style=&quot;line-height: 20%&quot;&gt;&lt;/p&gt;&lt;h3 style=&quot;font-size: 12px&quot;&gt;&lt;span style=&quot;font-size: 12px ; font-weight: normal ; text-align: justify&quot;&gt;&amp;nbsp; &amp;nbsp; &amp;nbsp; &amp;nbsp;&amp;nbsp;&lt;/span&gt;&lt;span style=&quot;font-size: 12px ; text-align: justify&quot;&gt;ААН, Иргэн бүртгэх&lt;/span&gt;&lt;span style=&quot;font-size: 12px ; text-align: justify&quot;&gt;&lt;span style=&quot;font-weight: normal&quot;&gt;&amp;nbsp;&lt;/span&gt;&lt;font color=&quot;#ff3333&quot;&gt;(*)&lt;/font&gt;&lt;font color=&quot;#990000&quot; style=&quot;font-weight: normal ; font-size: 12px&quot;&gt;&amp;nbsp; &amp;nbsp;&amp;nbsp;&lt;/font&gt;&lt;span style=&quot;font-weight: normal&quot;&gt;1.ААН, иргэн хайх товчийг дарах&amp;nbsp; 2.Регистрийн дугаар оруулаад хайх 3.Илэрц гарч ирвэл нэмэх дарна.&amp;nbsp; &amp;nbsp; 4.Илэрц гарахгүй бол регистрээ шалгаад дахин оролдох&lt;/span&gt;&lt;/span&gt;&lt;br&gt;&lt;/h3&gt;&lt;p&gt;&lt;/p&gt;" style="text;html=1;spacing=5;spacingTop=-20;whiteSpace=wrap;overflow=hidden;strokeWidth=3;fillColor=#E6E6E6;fontSize=13;fontColor=#000000;align=center;rounded=1;line-height: 1;" vertex="1" parent="1">
          <mxGeometry x="60" y="231" width="215" height="99" as="geometry" />
        </mxCell>
        <mxCell id="eTi-LTEG1T1zRE0e5gj7-3" value="&lt;p style=&quot;line-height: 20%&quot;&gt;&lt;/p&gt;&lt;h4&gt;&lt;span style=&quot;font-size: 12px ; font-weight: 400&quot;&gt;&amp;nbsp; &amp;nbsp; &amp;nbsp; &amp;nbsp; &amp;nbsp; &amp;nbsp;&lt;/span&gt;&lt;span style=&quot;font-size: 12px&quot;&gt;Шинжилгээний зорилго&lt;/span&gt;&lt;span style=&quot;font-size: 12px ; font-weight: 400&quot;&gt;&amp;nbsp;&lt;/span&gt;&lt;span style=&quot;font-size: 12px&quot;&gt;&lt;font color=&quot;#ff3333&quot;&gt;(*)&lt;/font&gt;&lt;/span&gt;&lt;span style=&quot;font-size: 12px ; font-weight: 400&quot;&gt;&amp;nbsp; &amp;nbsp; &amp;nbsp; &amp;nbsp;Тухайн шинжилгээ ямар зорилгоор хийгдэж байгааг сонгоно.&lt;/span&gt;&lt;/h4&gt;&lt;p&gt;&lt;/p&gt;" style="text;html=1;spacing=5;spacingTop=-20;whiteSpace=wrap;overflow=hidden;strokeWidth=3;fillColor=#E6E6E6;fontSize=13;fontColor=#000000;align=center;rounded=1;line-height: 1;" vertex="1" parent="1">
          <mxGeometry x="60.5" y="420" width="215" height="70" as="geometry" />
        </mxCell>
        <mxCell id="eTi-LTEG1T1zRE0e5gj7-4" value="&lt;p style=&quot;line-height: 20%&quot;&gt;&lt;/p&gt;&lt;h4&gt;&lt;span style=&quot;font-size: 12px ; font-weight: 400&quot;&gt;&amp;nbsp; &amp;nbsp; &amp;nbsp; &amp;nbsp; &amp;nbsp; &amp;nbsp; &amp;nbsp; &amp;nbsp; &amp;nbsp; &amp;nbsp; &amp;nbsp; &lt;/span&gt;&lt;span style=&quot;font-size: 12px&quot;&gt;Байцаагч&lt;/span&gt;&lt;span style=&quot;font-size: 12px ; font-weight: 400&quot;&gt;&amp;nbsp; &amp;nbsp; &amp;nbsp; &amp;nbsp; &amp;nbsp; &amp;nbsp; &amp;nbsp; &amp;nbsp; &amp;nbsp; &amp;nbsp; Тухайн дээж байцаагчийн хүсэлтээр шинжилгээ хийгдэж буй бол байцаагчийн нэрийг бичнэ.&amp;nbsp;&lt;/span&gt;&lt;/h4&gt;&lt;p&gt;&lt;/p&gt;" style="text;html=1;spacing=5;spacingTop=-20;whiteSpace=wrap;overflow=hidden;strokeWidth=3;fillColor=#E6E6E6;fontSize=13;fontColor=#000000;align=center;rounded=1;line-height: 1;" vertex="1" parent="1">
          <mxGeometry x="60.5" y="340" width="215" height="70" as="geometry" />
        </mxCell>
        <mxCell id="eTi-LTEG1T1zRE0e5gj7-5" value="&lt;p style=&quot;line-height: 20%&quot;&gt;&lt;/p&gt;&lt;h4&gt;&lt;span style=&quot;font-size: 12px ; font-weight: 400&quot;&gt;&amp;nbsp; &amp;nbsp; &amp;nbsp; &amp;nbsp; &amp;nbsp; &lt;/span&gt;&lt;span style=&quot;font-size: 12px&quot;&gt;Хүлээлгэн өгсөн хүн &lt;font color=&quot;#ff3333&quot;&gt;(*)&lt;/font&gt;&amp;nbsp;&amp;nbsp;&lt;/span&gt;&lt;span style=&quot;font-size: 12px ; font-weight: 400&quot;&gt;&amp;nbsp; &amp;nbsp; &amp;nbsp; Дээж хүлээлгэн өгсөн хүний нэр болон утасны дугаарыг бүртгэнэ.&amp;nbsp;&lt;/span&gt;&lt;/h4&gt;&lt;p&gt;&lt;/p&gt;" style="text;html=1;spacing=5;spacingTop=-20;whiteSpace=wrap;overflow=hidden;strokeWidth=3;fillColor=#E6E6E6;fontSize=13;fontColor=#000000;align=center;rounded=1;line-height: 1;" vertex="1" parent="1">
          <mxGeometry x="60.5" y="500" width="215" height="60" as="geometry" />
        </mxCell>
        <mxCell id="eTi-LTEG1T1zRE0e5gj7-6" value="&lt;h3&gt;&lt;font style=&quot;font-size: 16px&quot;&gt;Дээжийн мэдээлэл бүртгэх&lt;/font&gt;&lt;/h3&gt;" style="text;html=1;spacing=5;spacingTop=-20;whiteSpace=wrap;overflow=hidden;strokeColor=none;strokeWidth=3;fillColor=#E6E6E6;fontSize=13;fontColor=#000000;align=center;rounded=1;" vertex="1" parent="1">
          <mxGeometry x="308.5" y="190" width="215" height="50" as="geometry" />
        </mxCell>
        <mxCell id="eTi-LTEG1T1zRE0e5gj7-8" value="&lt;p style=&quot;line-height: 20%&quot;&gt;&lt;/p&gt;&lt;h4&gt;&lt;span style=&quot;font-size: 12px ; font-weight: 400&quot;&gt;&amp;nbsp; &amp;nbsp; &amp;nbsp; &amp;nbsp; &amp;nbsp; &amp;nbsp; &amp;nbsp; &amp;nbsp; &amp;nbsp; &amp;nbsp; &amp;nbsp; &lt;/span&gt;&lt;span style=&quot;font-size: 12px&quot;&gt;Хавсралт&lt;/span&gt;&lt;span style=&quot;font-size: 12px ; font-weight: 400&quot;&gt;&amp;nbsp; &amp;nbsp; &amp;nbsp; &amp;nbsp; &amp;nbsp; &amp;nbsp; &amp;nbsp; &amp;nbsp; &amp;nbsp; &amp;nbsp; Дээж шинжлүүлэхэд дагалдаж ирсэн албан бичиг, сертификат, болон бусад баримт бичгийг upload хийнэ.&lt;/span&gt;&lt;/h4&gt;&lt;p&gt;&lt;/p&gt;" style="text;html=1;spacing=5;spacingTop=-20;whiteSpace=wrap;overflow=hidden;strokeWidth=3;fillColor=#E6E6E6;fontSize=13;fontColor=#000000;align=center;rounded=1;line-height: 1;" vertex="1" parent="1">
          <mxGeometry x="60.5" y="570" width="215" height="70" as="geometry" />
        </mxCell>
        <mxCell id="eTi-LTEG1T1zRE0e5gj7-17" style="edgeStyle=orthogonalEdgeStyle;rounded=0;orthogonalLoop=1;jettySize=auto;html=1;exitX=1;exitY=0.5;exitDx=0;exitDy=0;entryX=0;entryY=0.5;entryDx=0;entryDy=0;" edge="1" parent="1" source="eTi-LTEG1T1zRE0e5gj7-9" target="eTi-LTEG1T1zRE0e5gj7-6">
          <mxGeometry relative="1" as="geometry">
            <Array as="points">
              <mxPoint x="290" y="665" />
              <mxPoint x="290" y="210" />
            </Array>
          </mxGeometry>
        </mxCell>
        <mxCell id="eTi-LTEG1T1zRE0e5gj7-9" value="&lt;p style=&quot;line-height: 20%&quot;&gt;&lt;/p&gt;&lt;h4&gt;&lt;span style=&quot;font-size: 12px&quot;&gt;АЛХАМ 2-Г ДАГАХ&lt;/span&gt;&lt;/h4&gt;&lt;p&gt;&lt;/p&gt;" style="text;html=1;spacing=5;spacingTop=-20;whiteSpace=wrap;overflow=hidden;strokeWidth=3;fillColor=#E6E6E6;fontSize=13;fontColor=#000000;align=center;rounded=1;line-height: 1;" vertex="1" parent="1">
          <mxGeometry x="60" y="650" width="215" height="30" as="geometry" />
        </mxCell>
        <mxCell id="eTi-LTEG1T1zRE0e5gj7-11" value="&lt;span&gt;Алхам 2&lt;/span&gt;" style="shape=offPageConnector;whiteSpace=wrap;html=1;fillColor=#0075E8;fontSize=15;fontColor=#FFFFFF;size=0.5093750000000015;verticalAlign=top;strokeColor=none;" vertex="1" parent="1">
          <mxGeometry x="326.5" y="100" width="160" height="40" as="geometry" />
        </mxCell>
        <mxCell id="eTi-LTEG1T1zRE0e5gj7-12" value="&lt;span&gt;Stage 3&lt;/span&gt;" style="shape=offPageConnector;whiteSpace=wrap;html=1;fillColor=#0075E8;fontSize=15;fontColor=#FFFFFF;size=0.5093750000000015;verticalAlign=top;strokeColor=none;" vertex="1" parent="1">
          <mxGeometry x="776.5" y="100" width="160" height="40" as="geometry" />
        </mxCell>
        <mxCell id="eTi-LTEG1T1zRE0e5gj7-13" value="&lt;h1&gt;ДЭЭЖ БҮРТГЭХ ДАРААЛАЛ&lt;/h1&gt;" style="text;html=1;strokeColor=#d79b00;fillColor=#ffe6cc;align=center;verticalAlign=middle;whiteSpace=wrap;rounded=0;opacity=50;" vertex="1" parent="1">
          <mxGeometry x="340" y="20" width="380" height="40" as="geometry" />
        </mxCell>
        <mxCell id="eTi-LTEG1T1zRE0e5gj7-14" value="&lt;b&gt;&lt;font color=&quot;#ff3333&quot;&gt;(*)&lt;/font&gt;&lt;/b&gt; Заавал бөглөх утгыг илрхийлнэ" style="text;html=1;strokeColor=none;fillColor=none;align=center;verticalAlign=middle;whiteSpace=wrap;rounded=0;opacity=50;" vertex="1" parent="1">
          <mxGeometry x="816.5" y="10" width="250" height="20" as="geometry" />
        </mxCell>
        <mxCell id="eTi-LTEG1T1zRE0e5gj7-16" value="&lt;p style=&quot;line-height: 20%&quot;&gt;&lt;/p&gt;&lt;h4&gt;&lt;span style=&quot;font-size: 12px&quot;&gt;НЭМЭХ&lt;/span&gt;&lt;/h4&gt;&lt;p&gt;&lt;/p&gt;" style="text;html=1;spacing=5;spacingTop=-20;whiteSpace=wrap;overflow=hidden;strokeWidth=3;fillColor=#E6E6E6;fontSize=13;fontColor=#000000;align=center;rounded=1;line-height: 1;" vertex="1" parent="1">
          <mxGeometry x="308.5" y="650" width="215" height="30" as="geometry" />
        </mxCell>
        <mxCell id="eTi-LTEG1T1zRE0e5gj7-18" value="&lt;p style=&quot;line-height: 20%&quot;&gt;&lt;/p&gt;&lt;h3 style=&quot;font-size: 12px&quot;&gt;&lt;span style=&quot;font-size: 12px ; font-weight: normal ; text-align: justify&quot;&gt;&amp;nbsp; &amp;nbsp; &amp;nbsp; &amp;nbsp; &amp;nbsp; &amp;nbsp;&amp;nbsp;&lt;/span&gt;&lt;span style=&quot;font-size: 12px ; text-align: justify&quot;&gt;Дээж нэмэх&amp;nbsp;&lt;/span&gt;&lt;span style=&quot;font-size: 12px ; text-align: justify&quot;&gt;&lt;font color=&quot;#ff3333&quot;&gt;(*)&lt;/font&gt;&lt;font color=&quot;#990000&quot; style=&quot;font-weight: normal ; font-size: 12px&quot;&gt;&amp;nbsp; &amp;nbsp; &amp;nbsp; &amp;nbsp; &amp;nbsp; &amp;nbsp; &amp;nbsp; &amp;nbsp; &amp;nbsp;&lt;/font&gt;&lt;span style=&quot;font-weight: normal&quot;&gt;Дээжийн мэдээлэл хүснэгтийн харгалзаа нэмэх &lt;/span&gt;[+]&lt;span style=&quot;font-weight: normal&quot;&gt; тэмдгийг дарж, дээж нэмэх цонхыг дуудна..&lt;/span&gt;&lt;/span&gt;&lt;br&gt;&lt;/h3&gt;&lt;p&gt;&lt;/p&gt;" style="text;html=1;spacing=5;spacingTop=-20;whiteSpace=wrap;overflow=hidden;strokeWidth=3;fillColor=#E6E6E6;fontSize=13;fontColor=#000000;align=center;rounded=1;line-height: 1;" vertex="1" parent="1">
          <mxGeometry x="308.5" y="250" width="215" height="60" as="geometry" />
        </mxCell>
        <mxCell id="eTi-LTEG1T1zRE0e5gj7-19" value="&lt;p style=&quot;line-height: 20%&quot;&gt;&lt;/p&gt;&lt;h3 style=&quot;font-size: 12px&quot;&gt;&lt;span style=&quot;font-size: 12px ; font-weight: normal ; text-align: justify&quot;&gt;&amp;nbsp; &amp;nbsp; &amp;nbsp; &amp;nbsp; &amp;nbsp; &amp;nbsp;&amp;nbsp;&lt;/span&gt;&lt;span style=&quot;font-size: 12px ; text-align: justify&quot;&gt;Дээжийн төрөл&lt;span style=&quot;font-weight: 400&quot;&gt;&amp;nbsp;&lt;/span&gt;&lt;/span&gt;&lt;span style=&quot;font-size: 12px ; text-align: justify&quot;&gt;&lt;font color=&quot;#ff3333&quot;&gt;(*)&lt;/font&gt;&lt;font color=&quot;#990000&quot; style=&quot;font-weight: normal ; font-size: 12px&quot;&gt;&amp;nbsp; &amp;nbsp; &amp;nbsp; &amp;nbsp; &amp;nbsp; &amp;nbsp; &amp;nbsp; &amp;nbsp; &amp;nbsp;&lt;/font&gt;&lt;span style=&quot;font-weight: normal&quot;&gt;Дээжийн нэр төрлийг сонгоно.&amp;nbsp; &amp;nbsp; Жнь: Дээж нь&amp;nbsp;&lt;/span&gt;Талх &lt;span style=&quot;font-weight: normal&quot;&gt;бол &lt;/span&gt;гурилан бүтээгдэхүүн&lt;span style=&quot;font-weight: normal&quot;&gt; гэж сонгоно.&lt;/span&gt;&lt;/span&gt;&lt;br&gt;&lt;/h3&gt;&lt;p&gt;&lt;/p&gt;" style="text;html=1;spacing=5;spacingTop=-20;whiteSpace=wrap;overflow=hidden;strokeWidth=3;fillColor=#E6E6E6;fontSize=13;fontColor=#000000;align=center;rounded=1;line-height: 1;" vertex="1" parent="1">
          <mxGeometry x="308.5" y="318" width="215" height="62" as="geometry" />
        </mxCell>
        <mxCell id="eTi-LTEG1T1zRE0e5gj7-21" value="&lt;p style=&quot;line-height: 20%&quot;&gt;&lt;/p&gt;&lt;h3 style=&quot;font-size: 12px&quot;&gt;&lt;span style=&quot;font-size: 12px ; font-weight: normal ; text-align: justify&quot;&gt;&amp;nbsp; &amp;nbsp; &amp;nbsp; &amp;nbsp; &amp;nbsp; &amp;nbsp;&amp;nbsp;&lt;/span&gt;&lt;span style=&quot;font-size: 12px ; text-align: justify&quot;&gt;Дээжийн нэр&amp;nbsp;&lt;/span&gt;&lt;span style=&quot;font-size: 12px ; text-align: justify&quot;&gt;&lt;font color=&quot;#ff3333&quot;&gt;(*)&lt;/font&gt;&lt;font color=&quot;#990000&quot; style=&quot;font-weight: normal ; font-size: 12px&quot;&gt;&amp;nbsp; &amp;nbsp; &amp;nbsp; &amp;nbsp; &amp;nbsp; &amp;nbsp; &amp;nbsp; &amp;nbsp; &amp;nbsp;&lt;/font&gt;&lt;span style=&quot;font-weight: normal&quot;&gt;Хүсэлт гаргагчийн нэрлэсэн эсвэл дээжийг хооронд нь ялгах нэршлийг бичнэ. Жнь: Twix 250 гр&amp;nbsp;&lt;/span&gt;&lt;/span&gt;&lt;br&gt;&lt;/h3&gt;&lt;p&gt;&lt;/p&gt;" style="text;html=1;spacing=5;spacingTop=-20;whiteSpace=wrap;overflow=hidden;strokeWidth=3;fillColor=#E6E6E6;fontSize=13;fontColor=#000000;align=center;rounded=1;line-height: 1;" vertex="1" parent="1">
          <mxGeometry x="308.5" y="390" width="215" height="60" as="geometry" />
        </mxCell>
        <mxCell id="eTi-LTEG1T1zRE0e5gj7-22" value="&lt;p style=&quot;line-height: 20%&quot;&gt;&lt;/p&gt;&lt;h3 style=&quot;font-size: 12px&quot;&gt;&lt;span style=&quot;font-size: 12px&quot;&gt;&amp;nbsp; &amp;nbsp; &amp;nbsp; &amp;nbsp; &amp;nbsp;Шинжилгээнд&amp;nbsp; хамруулах&amp;nbsp; &amp;nbsp; &amp;nbsp; &amp;nbsp; &amp;nbsp; &amp;nbsp; &amp;nbsp; &amp;nbsp; &amp;nbsp; &amp;nbsp; &amp;nbsp; &amp;nbsp; &amp;nbsp; &amp;nbsp; хэмжээ&amp;nbsp;&lt;/span&gt;&lt;span style=&quot;font-size: 12px&quot;&gt;&lt;font color=&quot;#ff3333&quot;&gt;(*)&amp;nbsp; &amp;nbsp; &amp;nbsp; &amp;nbsp; &amp;nbsp; &amp;nbsp; &amp;nbsp;&lt;/font&gt;&lt;span style=&quot;font-weight: normal&quot;&gt;Тухайн дээжээс хэр хэмжээнд шинжилгээ хийх хэмжээг бичнэ.&amp;nbsp;&lt;/span&gt;&lt;/span&gt;&lt;br&gt;&lt;/h3&gt;&lt;p&gt;&lt;/p&gt;" style="text;html=1;spacing=5;spacingTop=-20;whiteSpace=wrap;overflow=hidden;strokeWidth=3;fillColor=#E6E6E6;fontSize=13;fontColor=#000000;align=center;rounded=1;line-height: 1;" vertex="1" parent="1">
          <mxGeometry x="308.5" y="456" width="215" height="70" as="geometry" />
        </mxCell>
        <mxCell id="eTi-LTEG1T1zRE0e5gj7-23" value="&lt;p style=&quot;line-height: 20%&quot;&gt;&lt;/p&gt;&lt;h3 style=&quot;font-size: 12px&quot;&gt;&lt;span style=&quot;font-size: 12px&quot;&gt;&amp;nbsp;Загвар дээжинд хадгалах хэмжээ&amp;nbsp; &amp;nbsp;&lt;/span&gt;&lt;span style=&quot;font-size: 12px&quot;&gt;&lt;span style=&quot;font-weight: normal&quot;&gt;Давтан шинжилгээ хийх зорилгоор архиванд хадгалах дээж.&amp;nbsp;&lt;/span&gt;&lt;/span&gt;&lt;br&gt;&lt;/h3&gt;&lt;p&gt;&lt;/p&gt;" style="text;html=1;spacing=5;spacingTop=-20;whiteSpace=wrap;overflow=hidden;strokeWidth=3;fillColor=#E6E6E6;fontSize=13;fontColor=#000000;align=center;rounded=1;line-height: 1;" vertex="1" parent="1">
          <mxGeometry x="308.5" y="531" width="215" height="49" as="geometry" />
        </mxCell>
        <mxCell id="eTi-LTEG1T1zRE0e5gj7-24" value="&lt;p style=&quot;line-height: 20%&quot;&gt;&lt;/p&gt;&lt;h3 style=&quot;font-size: 12px&quot;&gt;&lt;span style=&quot;font-size: 12px&quot;&gt;&amp;nbsp; &amp;nbsp; &amp;nbsp; &amp;nbsp; &amp;nbsp; &amp;nbsp;Дээжийн тоо&amp;nbsp; &amp;nbsp; &amp;nbsp; &amp;nbsp; &amp;nbsp; &amp;nbsp; &amp;nbsp; &amp;nbsp; &amp;nbsp; &amp;nbsp; &amp;nbsp;&lt;/span&gt;&lt;span style=&quot;font-size: 12px&quot;&gt;&lt;span style=&quot;font-weight: normal&quot;&gt;Адил мэдээлэлтэй дээжийн бүртгэлийг хувилах зорилготой.&amp;nbsp;&lt;/span&gt;&lt;/span&gt;&lt;br&gt;&lt;/h3&gt;&lt;p&gt;&lt;/p&gt;" style="text;html=1;spacing=5;spacingTop=-20;whiteSpace=wrap;overflow=hidden;strokeWidth=3;fillColor=#E6E6E6;fontSize=13;fontColor=#000000;align=center;rounded=1;line-height: 1;" vertex="1" parent="1">
          <mxGeometry x="308.5" y="588" width="215" height="49" as="geometry" />
        </mxCell>
        <mxCell id="eTi-LTEG1T1zRE0e5gj7-25" value="&lt;p style=&quot;line-height: 20%&quot;&gt;&lt;/p&gt;&lt;h4&gt;&lt;span style=&quot;font-size: 12px&quot;&gt;ХАДГАЛАХ&lt;/span&gt;&lt;/h4&gt;&lt;p&gt;&lt;/p&gt;" style="text;html=1;spacing=5;spacingTop=-20;whiteSpace=wrap;overflow=hidden;strokeWidth=3;fillColor=#E6E6E6;fontSize=13;fontColor=#000000;align=center;rounded=1;line-height: 1;" vertex="1" parent="1">
          <mxGeometry x="308.5" y="690" width="215" height="30" as="geometry" />
        </mxCell>
        <mxCell id="eTi-LTEG1T1zRE0e5gj7-26" value="&lt;h3&gt;&lt;span style=&quot;font-size: 16px&quot;&gt;Шинжээчид дээж хувиарлах&lt;/span&gt;&lt;/h3&gt;" style="text;html=1;spacing=5;spacingTop=-20;whiteSpace=wrap;overflow=hidden;strokeColor=none;strokeWidth=3;fillColor=#E6E6E6;fontSize=13;fontColor=#000000;align=center;rounded=1;" vertex="1" parent="1">
          <mxGeometry x="540.5" y="190" width="215" height="50" as="geometry" />
        </mxCell>
        <mxCell id="eTi-LTEG1T1zRE0e5gj7-29" value="&lt;p style=&quot;line-height: 20%&quot;&gt;&lt;/p&gt;&lt;h3 style=&quot;font-size: 12px&quot;&gt;&lt;span style=&quot;font-size: 12px ; font-weight: normal ; text-align: justify&quot;&gt;&amp;nbsp; &amp;nbsp; &amp;nbsp; &amp;nbsp; &amp;nbsp; &amp;nbsp;&amp;nbsp;&lt;/span&gt;&lt;span style=&quot;font-size: 12px ; text-align: justify&quot;&gt;Дээж нэмэх&amp;nbsp;&lt;/span&gt;&lt;span style=&quot;font-size: 12px ; text-align: justify&quot;&gt;&lt;font color=&quot;#ff3333&quot;&gt;(*)&lt;/font&gt;&lt;font color=&quot;#990000&quot; style=&quot;font-weight: normal ; font-size: 12px&quot;&gt;&amp;nbsp; &amp;nbsp; &amp;nbsp; &amp;nbsp; &amp;nbsp; &amp;nbsp; &amp;nbsp; &amp;nbsp; &amp;nbsp;&lt;/font&gt;&lt;span style=&quot;font-weight: normal&quot;&gt;Дээжийн мэдээлэл хүснэгтийн харгалзаа нэмэх &lt;/span&gt;[+]&lt;span style=&quot;font-weight: normal&quot;&gt; тэмдгийг дарж, дээж нэмэх цонхыг дуудна..&lt;/span&gt;&lt;/span&gt;&lt;br&gt;&lt;/h3&gt;&lt;p&gt;&lt;/p&gt;" style="text;html=1;spacing=5;spacingTop=-20;whiteSpace=wrap;overflow=hidden;strokeWidth=3;fillColor=#E6E6E6;fontSize=13;fontColor=#000000;align=center;rounded=1;line-height: 1;" vertex="1" parent="1">
          <mxGeometry x="540.5" y="250" width="215" height="60" as="geometry" />
        </mxCell>
      </root>
    </mxGraphModel>
  </diagram>
</mxfile>
